# xmcd
#
# Track frame offsets:
#	150
#	13432
#	27750
#	57797
#	70731
#	84136
#	96184
#	109022
#	123607
#	137302
#	149053
#	161991
#	178024
#	192564
#	206839
#	219318
#	233938
#	248315
#	262801
#	276462
#
# Disc length: 3836
#
# Revision: 3
# Processed by: cddbd v1.5.1PL0 Copyright (c) Steve Scherf et al.
# Submitted via: audiograbber 1.81.03
# Normalized: r1:TDELIM( - ),TSWAP
#
DISCID=250efa14
DTITLE=Eric Clapton - The Country Blues Roots of Eric Clapton
DYEAR=2000
DGENRE=Blues
TTITLE0=Blind Joe Reynolds - Outside Woman Blues
TTITLE1=Charlie Patton - A Spoonful Blues
TTITLE2=Son House - Walkin' Blues
TTITLE3=Robert Johnson - Ramblin' on My Mind
TTITLE4=Bessie Smith - Nobody Knows You When Your Down and Out
TTITLE5=Robert Johnson - Cross Road Blues
TTITLE6=Skip James - I'm So Glad
TTITLE7=Mississippi Sheiks - Sittin' on Top of The World
TTITLE8=Big Bill Broonzy - Key to the Highway
TTITLE9=Arthur Crudup - Mean Ol' Frisco
TTITLE10=Big Maceo - Worried Life Blues
TTITLE11=Leroy Carr - Blues Before Sunrise
TTITLE12=Barbecue Bob - Motherless Chile
TTITLE13=Sleepy John Estes - Floating Bridge
TTITLE14=Tommy McClennan - Cross Cut Saw
TTITLE15=Mississippi Sheiks - Alberta Blues
TTITLE16=St. Louis Jimmy Oden - Going Down Slow
TTITLE17=Blind Willie Johnson - Jesus is Coming Soon
TTITLE18=T-Bone Walker - Stormy Monday
TTITLE19=Tampa Red - It Hurts Me Too
EXTD=
EXTT0=
EXTT1=
EXTT2=
EXTT3=
EXTT4=
EXTT5=
EXTT6=
EXTT7=
EXTT8=
EXTT9=
EXTT10=
EXTT11=
EXTT12=
EXTT13=
EXTT14=
EXTT15=
EXTT16=
EXTT17=
EXTT18=
EXTT19=
PLAYORDER=
